<?xml version="1.0" encoding="utf-8"?><!-- Uploaded to: SVG Repo, www.svgrepo.com, Generator: SVG Repo Mixer Tools -->
<svg fill="#000000" width="800px" height="800px" viewBox="0 0 24 24" id="chart-line-alt-1" data-name="Flat Color" xmlns="http://www.w3.org/2000/svg" class="icon flat-color"><path id="secondary" d="M21.5,6a1.5,1.5,0,0,0-3,0,1.41,1.41,0,0,0,.11.54l-3,5.94-3-2.28a1,1,0,0,0-1.31.09l-5,5a1,1,0,0,0,0,1.42,1,1,0,0,0,1.42,0l4.38-4.39L15.4,14.8a1,1,0,0,0,.83.17,1,1,0,0,0,.66-.52l3.5-7A1.49,1.49,0,0,0,21.5,6Z" style="fill: rgb(44, 169, 188);"></path><path id="primary" d="M21,22H3a1,1,0,0,1-1-1V3A1,1,0,0,1,4,3V20H21a1,1,0,0,1,0,2Z" style="fill: rgb(0, 0, 0);"></path></svg>