<?xml version="1.0" standalone="no"?>
<!DOCTYPE svg PUBLIC "-//W3C//DTD SVG 20010904//EN"
 "http://www.w3.org/TR/2001/REC-SVG-20010904/DTD/svg10.dtd">
<svg version="1.0" xmlns="http://www.w3.org/2000/svg"
 width="1200.000000pt" height="1200.000000pt" viewBox="0 0 1200.000000 1200.000000"
 preserveAspectRatio="xMidYMid meet">

<g transform="translate(0.000000,1200.000000) scale(0.100000,-0.100000)"
fill="#000000" stroke="none">
<path d="M4155 11105 c-280 -53 -518 -254 -614 -520 -17 -47 -31 -90 -31 -95
0 -5 -286 -10 -682 -12 l-683 -3 -71 -26 c-180 -66 -316 -219 -353 -397 -16
-77 -16 -7530 0 -7604 35 -163 155 -311 306 -378 118 -52 28 -50 2299 -50
l2107 0 -46 -48 c-75 -81 -96 -140 -72 -199 10 -24 85 -108 208 -231 195 -197
250 -244 300 -256 42 -10 109 25 183 95 l64 63 38 -23 c94 -57 268 -134 387
-172 71 -23 140 -45 153 -50 21 -8 22 -14 22 -102 0 -76 4 -101 23 -137 40
-80 45 -81 407 -78 282 3 318 5 348 21 45 24 71 85 72 162 0 33 3 76 6 96 6
35 7 36 88 59 148 42 336 123 468 201 l38 23 64 -63 c36 -34 86 -71 112 -82
79 -35 97 -26 258 128 259 248 336 339 336 397 0 35 -35 91 -97 157 l-63 67
64 123 c78 151 99 199 146 354 l37 120 94 2 c73 2 103 8 139 25 79 40 80 46
80 398 0 278 -2 309 -19 347 -28 60 -64 76 -190 82 l-105 6 -32 105 c-43 142
-84 243 -155 379 l-59 113 69 73 c39 41 74 89 81 109 24 74 13 93 -172 284
-283 294 -324 322 -410 285 -24 -11 -74 -48 -110 -81 l-65 -62 -144 73 c-144
73 -227 106 -370 147 l-76 22 -6 93 c-7 118 -31 178 -81 202 l-36 17 0 2360
c0 2010 -2 2371 -15 2429 -30 143 -137 288 -263 355 -130 69 -87 66 -839 69
l-682 4 -21 67 c-42 132 -97 219 -205 328 -83 83 -116 108 -190 146 -50 26
-124 57 -165 70 l-75 22 -865 3 c-682 1 -880 -1 -935 -12z m1775 -321 c156
-35 292 -159 352 -320 20 -55 22 -80 26 -356 l4 -298 -1251 0 -1251 0 0 278
c0 307 6 349 62 454 61 115 204 223 328 247 25 5 409 9 853 10 699 1 817 -1
877 -15z m-2438 -908 c3 -269 4 -286 24 -312 11 -15 33 -37 48 -48 27 -21 28
-21 1494 -21 l1467 0 34 24 c66 47 71 73 71 374 l0 267 628 0 c716 0 700 1
770 -74 22 -24 45 -61 51 -82 8 -27 11 -749 11 -2386 l0 -2346 -157 -4 c-231
-5 -252 -21 -262 -208 -6 -101 -7 -105 -31 -112 -218 -66 -410 -145 -532 -219
l-38 -23 -67 65 c-43 41 -86 72 -115 84 -82 31 -102 17 -345 -228 -243 -246
-260 -271 -225 -349 10 -24 48 -75 83 -112 59 -63 62 -69 49 -89 -49 -76 -144
-287 -180 -400 -23 -72 -46 -142 -51 -154 -8 -22 -14 -23 -102 -23 -76 0 -101
-4 -137 -23 -80 -40 -81 -45 -78 -407 3 -279 5 -319 21 -347 27 -51 68 -66
185 -71 94 -4 104 -6 112 -26 8 -20 80 -246 88 -274 3 -10 -403 -12 -2061 -10
l-2064 3 -48 30 c-36 22 -57 45 -77 84 l-28 53 0 3737 0 3737 26 53 c28 56 79
98 136 111 18 4 317 8 665 9 l632 1 3 -284z m4718 -5026 c3 -52 11 -105 18
-117 19 -34 80 -61 211 -94 250 -64 379 -119 562 -239 128 -84 177 -80 283 20
29 27 57 50 62 50 5 0 42 -33 82 -73 l72 -73 -56 -54 c-114 -113 -113 -146 10
-348 117 -192 177 -342 216 -534 12 -55 28 -114 36 -130 21 -40 82 -65 182
-74 l82 -7 0 -102 0 -103 -87 -4 c-151 -8 -168 -26 -227 -250 -65 -249 -116
-368 -231 -542 -89 -136 -87 -177 13 -287 29 -31 52 -61 52 -65 0 -12 -133
-144 -145 -144 -6 0 -33 23 -60 51 -107 109 -143 107 -343 -15 -189 -114 -349
-179 -529 -214 -169 -33 -194 -58 -203 -207 l-5 -90 -106 -3 -107 -3 -4 94
c-6 148 -24 163 -266 227 -247 65 -335 102 -519 221 -144 94 -183 92 -294 -9
-31 -29 -61 -52 -65 -52 -12 0 -144 133 -144 145 0 6 23 33 51 60 112 110 109
137 -31 375 -109 184 -169 340 -204 528 -9 46 -25 96 -36 112 -27 37 -83 58
-180 66 l-80 7 0 102 0 102 96 5 c147 8 161 24 224 265 61 233 110 348 229
532 50 77 61 102 61 136 0 47 -35 109 -94 164 -20 19 -36 40 -36 45 0 14 131
146 145 146 6 0 33 -23 60 -51 109 -111 139 -108 367 27 190 113 322 165 518
204 58 12 116 28 128 36 36 23 62 93 69 184 l6 81 106 -3 106 -3 5 -95z"/>
<path d="M2570 9098 c-18 -13 -43 -36 -54 -51 -21 -28 -21 -34 -21 -687 0
-653 0 -659 21 -687 11 -15 36 -38 54 -51 l34 -22 657 2 c651 3 658 3 686 24
15 12 37 36 48 55 19 32 20 57 25 457 l5 422 190 143 c104 78 198 155 210 170
30 42 28 122 -5 169 -33 49 -69 68 -127 68 -53 0 -109 -28 -213 -108 -57 -43
-70 -45 -70 -9 0 32 -35 84 -72 107 -32 19 -52 20 -684 20 l-651 0 -33 -22z
m1128 -340 c-3 -42 -4 -43 -173 -170 -93 -70 -172 -127 -175 -127 -3 0 -52 56
-110 124 -58 68 -117 131 -132 139 -33 20 -100 21 -137 2 -42 -22 -89 -81 -96
-120 -9 -48 8 -94 58 -153 23 -27 92 -110 152 -183 115 -140 176 -190 230
-190 46 0 115 39 250 139 66 50 123 90 128 91 4 0 7 -88 7 -195 l0 -195 -445
0 -445 0 0 440 0 440 446 0 445 0 -3 -42z"/>
<path d="M4971 9093 c-50 -26 -74 -64 -79 -126 -6 -74 23 -131 81 -158 40 -18
78 -19 900 -19 931 0 901 -2 945 55 54 69 51 156 -9 219 l-38 41 -883 3 c-826
2 -885 1 -917 -15z"/>
<path d="M4454 8529 c-47 -13 -91 -69 -100 -125 -8 -58 17 -127 59 -158 l28
-21 1422 -3 c1405 -2 1422 -2 1455 18 47 29 72 76 72 135 0 69 -26 115 -80
143 l-44 22 -1391 -1 c-804 0 -1403 -5 -1421 -10z"/>
<path d="M4445 7916 c-86 -38 -118 -139 -72 -226 45 -85 -9 -80 857 -80 868 0
814 -5 858 80 41 78 21 160 -52 214 -27 21 -37 21 -794 23 -624 2 -773 0 -797
-11z"/>
<path d="M2580 6658 c-30 -15 -53 -37 -67 -63 l-23 -40 0 -635 c0 -598 2 -637
19 -676 12 -25 33 -50 57 -65 l39 -24 628 -3 c400 -2 641 1 665 8 49 13 101
67 113 116 4 22 9 219 9 439 l1 400 196 144 c162 120 199 152 214 185 24 54
24 83 -3 136 -61 120 -166 117 -331 -9 -37 -29 -71 -49 -76 -47 -5 3 -12 21
-15 40 -4 18 -18 46 -31 60 -53 57 -40 56 -723 56 l-628 0 -44 -22z m1120
-341 l0 -43 -167 -123 c-91 -68 -172 -124 -179 -125 -6 0 -58 52 -114 117 -56
65 -116 127 -134 138 -74 45 -184 2 -222 -88 -32 -75 -20 -101 139 -293 196
-237 222 -260 293 -260 50 0 100 27 242 131 67 49 126 89 132 89 7 0 10 -63 8
-192 l-3 -193 -442 -3 -443 -2 0 445 0 445 445 0 445 0 0 -43z"/>
<path d="M4973 6651 c-104 -48 -112 -213 -14 -278 l34 -23 874 0 c783 0 879 2
909 16 100 47 106 207 11 278 -28 21 -31 21 -900 23 -841 3 -874 2 -914 -16z"/>
<path d="M4422 6070 c-37 -23 -71 -88 -72 -135 0 -41 38 -114 73 -139 28 -21
31 -21 1445 -21 1399 0 1417 0 1451 20 45 26 71 78 71 138 0 54 -16 90 -55
127 l-27 25 -1426 3 c-1417 2 -1427 2 -1460 -18z"/>
<path d="M4422 5460 c-37 -23 -71 -88 -72 -135 0 -47 40 -117 80 -140 34 -20
50 -20 807 -20 764 0 772 0 799 21 47 35 67 70 71 126 5 65 -17 112 -66 145
l-34 23 -776 0 c-761 0 -777 0 -809 -20z"/>
<path d="M2585 4221 c-33 -14 -74 -62 -86 -100 -7 -24 -9 -248 -7 -672 l3
-636 29 -37 c52 -68 27 -66 731 -66 613 0 637 1 674 20 22 11 50 36 62 57 l24
38 3 423 3 422 167 123 c205 150 248 190 257 241 10 52 -9 109 -49 150 -73 73
-166 51 -326 -77 -47 -38 -60 -39 -60 -4 0 32 -35 84 -72 107 -32 19 -51 20
-683 19 -357 0 -659 -4 -670 -8z m1115 -352 l0 -39 -167 -125 c-93 -68 -173
-124 -180 -125 -6 0 -59 56 -118 124 -111 130 -141 151 -208 150 -74 -2 -158
-88 -157 -161 1 -47 20 -76 153 -237 226 -273 258 -293 370 -237 34 17 114 69
177 116 63 47 118 85 122 85 4 0 8 -88 8 -195 l0 -195 -445 0 -445 0 0 440 0
440 438 2 c240 2 440 2 445 0 4 -2 7 -21 7 -43z"/>
<path d="M4959 4198 c-44 -30 -69 -81 -69 -139 0 -51 26 -98 73 -133 28 -20
39 -21 405 -21 359 0 379 1 410 20 43 26 72 82 72 140 0 52 -16 89 -55 125
l-27 25 -387 3 -387 3 -35 -23z"/>
<path d="M4430 3628 c-57 -39 -75 -73 -75 -136 1 -69 23 -112 75 -141 37 -21
47 -21 634 -21 657 0 642 -1 687 61 34 47 34 149 2 195 -47 66 -28 64 -691 64
l-599 0 -33 -22z"/>
<path d="M4427 3018 c-52 -31 -82 -94 -73 -156 7 -51 27 -84 70 -116 27 -20
41 -21 482 -24 435 -2 457 -2 500 17 108 48 111 226 4 282 -32 18 -66 19 -490
19 -449 0 -455 -1 -493 -22z"/>
<path d="M7917 4115 c-414 -79 -736 -377 -844 -783 -23 -85 -26 -117 -26 -257
0 -140 3 -172 26 -257 121 -455 508 -770 977 -794 190 -10 350 25 531 117 331
169 546 506 566 885 26 496 -306 944 -792 1070 -127 33 -320 41 -438 19z m315
-319 c154 -30 283 -101 396 -221 79 -83 128 -165 168 -280 26 -73 28 -92 28
-220 0 -123 -3 -149 -26 -217 -42 -125 -91 -204 -192 -303 -137 -137 -277
-199 -471 -212 -212 -13 -415 67 -567 225 -282 294 -274 754 19 1034 178 169
410 239 645 194z"/>
</g>
</svg>
